<svg width="12" height="14" viewBox="0 0 12 14" fill="none" xmlns="http://www.w3.org/2000/svg">
<path d="M8.375 1.26H8.5C8.43125 1.26 8.375 1.197 8.375 1.12V1.26H3.625V1.12C3.625 1.197 3.56875 1.26 3.5 1.26H3.625V2.52H2.5V1.12C2.5 0.50225 2.94844 0 3.5 0H8.5C9.05156 0 9.5 0.50225 9.5 1.12V2.52H8.375V1.26ZM0.5 2.52H11.5C11.7766 2.52 12 2.77025 12 3.08V3.64C12 3.717 11.9438 3.78 11.875 3.78H10.9313L10.5453 12.9325C10.5203 13.5293 10.0797 14 9.54688 14H2.45312C1.91875 14 1.47969 13.531 1.45469 12.9325L1.06875 3.78H0.125C0.05625 3.78 0 3.717 0 3.64V3.08C0 2.77025 0.223437 2.52 0.5 2.52ZM2.57344 12.74H9.42656L9.80469 3.78H2.19531L2.57344 12.74Z" fill="#FF5A5A"/>
</svg>
