<svg width="40" height="30" viewBox="0 0 40 30" fill="none" xmlns="http://www.w3.org/2000/svg">
<path d="M38.5824 5.604C38.3633 4.77871 37.9312 4.02548 37.3293 3.41976C36.7274 2.81404 35.977 2.37709 35.1531 2.15267C32.1284 1.33667 19.9998 1.33667 19.9998 1.33667C19.9998 1.33667 7.87111 1.33667 4.84645 2.15267C4.02257 2.37709 3.27212 2.81404 2.67026 3.41976C2.0684 4.02548 1.63625 4.77871 1.41711 5.604C0.606446 8.648 0.606445 15 0.606445 15C0.606445 15 0.606446 21.352 1.41711 24.3967C1.63625 25.222 2.0684 25.9752 2.67026 26.5809C3.27212 27.1866 4.02257 27.6236 4.84645 27.848C7.87111 28.6633 19.9998 28.6633 19.9998 28.6633C19.9998 28.6633 32.1284 28.6633 35.1531 27.848C35.977 27.6236 36.7274 27.1866 37.3293 26.5809C37.9312 25.9752 38.3633 25.222 38.5824 24.3967C39.3931 21.352 39.3931 15 39.3931 15C39.3931 15 39.3931 8.648 38.5824 5.604Z" fill="#72DA22"/>
<path d="M16.0332 20.7667L26.1705 15L16.0332 9.23334V20.7667Z" fill="white"/>
<path d="M38.5824 5.604C38.3633 4.77871 37.9312 4.02548 37.3293 3.41976C36.7274 2.81404 35.977 2.37709 35.1531 2.15267C32.1284 1.33667 19.9998 1.33667 19.9998 1.33667C19.9998 1.33667 7.87111 1.33667 4.84645 2.15267C4.02257 2.37709 3.27212 2.81404 2.67026 3.41976C2.0684 4.02548 1.63625 4.77871 1.41711 5.604C0.606446 8.648 0.606445 15 0.606445 15C0.606445 15 0.606446 21.352 1.41711 24.3967C1.63625 25.222 2.0684 25.9752 2.67026 26.5809C3.27212 27.1866 4.02257 27.6236 4.84645 27.848C7.87111 28.6633 19.9998 28.6633 19.9998 28.6633C19.9998 28.6633 32.1284 28.6633 35.1531 27.848C35.977 27.6236 36.7274 27.1866 37.3293 26.5809C37.9312 25.9752 38.3633 25.222 38.5824 24.3967C39.3931 21.352 39.3931 15 39.3931 15C39.3931 15 39.3931 8.648 38.5824 5.604Z" stroke="black" stroke-miterlimit="10"/>
<path d="M16.0332 20.7667L26.1705 15L16.0332 9.23334V20.7667Z" stroke="black" stroke-miterlimit="10" stroke-linecap="round" stroke-linejoin="round"/>
</svg>
